HIERARCHY
ROOT Hips
{
	OFFSET 0.000000 0.000000 0.000000 
	CHANNELS 6 Xposition Yposition Zposition Zrotation Yrotation Xrotation
	JOINT LeftUpLeg
	{
		OFFSET 1.363060 -1.794630 0.839290 
		CHANNELS 3 Zrotation Yrotation Xrotation
		JOINT LeftLeg
		{
			OFFSET 2.448110 -6.726130 0.000000 
			CHANNELS 3 Zrotation Yrotation Xrotation
			JOINT LeftFoot
			{
				OFFSET 2.562200 -7.039590 0.000000 
				CHANNELS 3 Zrotation Yrotation Xrotation
				JOINT LeftToeBase
				{
					OFFSET 0.157640 -0.433110 2.322550 
					CHANNELS 3 Zrotation Yrotation Xrotation
					End Site
					{
						OFFSET 0.000000 0.000000 0.000000 
					}
				}
			}
		}
	}
	JOINT RightUpLeg
	{
		OFFSET -1.305520 -1.794630 0.839290 
		CHANNELS 3 Zrotation Yrotation Xrotation
		JOINT RightLeg
		{
			OFFSET -2.542530 -6.985550 0.000000 
			CHANNELS 3 Zrotation Yrotation Xrotation
			JOINT RightFoot
			{
				OFFSET -2.568260 -7.056230 0.000000 
				CHANNELS 3 Zrotation Yrotation Xrotation
				JOINT RightToeBase
				{
					OFFSET -0.164730 -0.452590 2.363150 
					CHANNELS 3 Zrotation Yrotation Xrotation
					End Site
					{
						OFFSET 0.000000 0.000000 0.000000 
					}
				}
			}
		}
	}
	JOINT Spine
	{
		OFFSET 0.028270 2.035590 -0.193380 
		CHANNELS 3 Zrotation Yrotation Xrotation
		JOINT Spine1
		{
			OFFSET 0.056720 2.048850 -0.042750 
			CHANNELS 3 Zrotation Yrotation Xrotation
			JOINT Neck1
			{
				OFFSET -0.054170 1.746240 0.172020 
				CHANNELS 3 Zrotation Yrotation Xrotation
				JOINT Head
				{
					OFFSET 0.104070 1.761360 -0.123970 
					CHANNELS 3 Zrotation Yrotation Xrotation
					End Site
					{
						OFFSET 0.000000 0.000000 0.000000 
					}
				}
			}
			JOINT LeftArm
			{
				OFFSET 3.362410 1.200890 -0.311210 
				CHANNELS 3 Zrotation Yrotation Xrotation
				JOINT LeftForeArm
				{
					OFFSET 4.983000 -0.000000 -0.000000 
					CHANNELS 3 Zrotation Yrotation Xrotation
					JOINT LeftHand
					{
						OFFSET 3.483560 -0.000000 -0.000000 
						CHANNELS 3 Zrotation Yrotation Xrotation
						JOINT LeftHandIndex1
						{
							OFFSET 0.715260 -0.000000 -0.000000 
							CHANNELS 3 Zrotation Yrotation Xrotation
							End Site
							{
								OFFSET 0.000000 0.000000 0.000000 
							}
						}
					}
				}
			}
			JOINT RightArm
			{
				OFFSET -3.136600 1.374050 -0.404650 
				CHANNELS 3 Zrotation Yrotation Xrotation
				JOINT RightForeArm
				{
					OFFSET -5.241900 -0.000000 -0.000000 
					CHANNELS 3 Zrotation Yrotation Xrotation
					JOINT RightHand
					{
						OFFSET -3.444170 -0.000000 -0.000000 
						CHANNELS 3 Zrotation Yrotation Xrotation
						JOINT RightHandIndex1
						{
							OFFSET -0.622530 -0.000000 -0.000000 
							CHANNELS 3 Zrotation Yrotation Xrotation
							End Site
							{
								OFFSET 0.000000 0.000000 0.000000 
							}
						}
					}
				}
			}
		}
	}
}
MOTION
Frames: 14
Frame Time: 0.041667
1.034832 21.888135 -16.528855 -1.393854 0.820446 5.904690 -19.440843 -7.848760 -14.766030 1.494880 7.702831 23.629300 1.474624 3.619771 27.202160 0.003600 -0.387500 -1.064700 26.238166 6.314779 -11.311585 -2.503909 -7.427397 23.193429 0.585058 -15.054445 20.041018 -0.169900 -2.655700 7.321500 1.328682 0.338828 -0.652998 2.564985 0.559625 -4.846942 5.140458 -4.095568 7.777516 3.314200 -2.033200 7.486200 -75.539927 -0.982054 24.768882 14.300378 -25.767354 -3.935522 -0.453560 -2.542141 2.575021 -7.125000 0.000000 0.000000 75.899475 -3.487630 19.005583 -16.488409 24.733175 -4.437562 1.046091 -0.410270 5.177368 7.125000 0.000000 0.000000 
1.038340 21.754133 -16.535972 -1.431870 0.994110 5.931074 -19.408042 -8.116184 -14.650291 1.454124 7.607090 23.299360 1.341850 4.290967 26.745811 0.000500 0.149300 0.410300 26.241319 6.338962 -11.238555 -2.445344 -7.307209 22.848912 0.570504 -14.678926 19.831092 -0.192000 -2.822200 7.784200 1.310828 0.312828 -0.764860 2.468106 0.548631 -5.098976 5.445442 -3.712628 8.433692 3.501000 -1.844800 7.723000 -75.231817 -0.836710 24.719363 14.750244 -26.401501 -4.126853 -0.178997 -2.728634 4.881596 -7.125000 0.000000 0.000000 75.837050 -3.765773 18.748252 -16.996577 25.463099 -4.723830 1.009725 -0.463532 7.985244 7.125000 0.000000 0.000000 
1.039844 21.604496 -16.545794 -1.404124 1.051129 5.996701 -19.441119 -8.320021 -14.584077 1.418777 7.519946 22.984131 1.196783 5.096126 26.316612 0.002300 0.308800 0.848500 26.179279 6.469525 -11.250024 -2.398204 -7.214868 22.581167 0.544808 -14.285821 19.659343 -0.215500 -2.988300 8.246300 1.304449 0.316854 -0.877043 2.474601 0.558275 -5.369049 5.275509 -3.856909 8.397384 3.400700 -1.926700 7.681400 -74.992264 -0.711388 24.875507 14.814006 -26.504086 -4.161724 -0.188869 -2.733901 4.819247 -7.125000 0.000000 0.000000 75.791399 -4.258532 19.203230 -17.328694 25.909381 -4.891186 1.077063 -0.495156 8.101682 7.125000 0.000000 0.000000 
1.034031 21.450849 -16.563133 -1.400402 1.033973 6.160949 -19.420958 -8.474351 -14.584864 1.372493 7.424913 22.668603 1.078576 5.502941 25.799728 0.002300 -0.309000 -0.849000 26.184932 6.833685 -11.402228 -2.365592 -7.163700 22.413102 0.552353 -14.110017 19.418739 -0.207000 -2.929200 8.081800 1.328378 0.292669 -0.953695 2.622834 0.554692 -5.471017 5.193461 -3.930427 8.182889 3.360300 -1.971100 7.535000 -74.813069 -0.727176 24.897877 14.947170 -26.698112 -4.218539 -0.159220 -2.777847 5.065997 -7.125000 0.000000 0.000000 75.706003 -4.527595 19.845038 -17.463313 26.073167 -4.936974 1.185329 -0.544308 6.670088 7.125000 0.000000 0.000000 
1.027416 21.288584 -16.581274 -1.389680 1.090078 6.359708 -19.399732 -8.545279 -14.677690 1.318502 7.325237 22.360500 1.005572 5.538267 25.314180 0.015800 -0.812200 -2.232400 26.184955 7.149593 -11.630768 -2.338807 -7.130439 22.299661 0.556255 -13.860062 19.116011 -0.163100 -2.602200 7.173200 1.296091 0.326223 -1.007394 2.614762 0.574247 -5.499948 5.312983 -4.102893 8.063163 3.382200 -2.042400 7.465300 -74.409573 -0.654281 25.829003 14.884787 -26.681481 -4.266481 -0.398419 -2.582917 2.071807 -7.125000 0.000000 0.000000 75.747570 -4.675263 20.236112 -17.548821 26.183197 -4.974031 1.228731 -0.578504 5.502537 7.125000 0.000000 0.000000 
1.023507 21.106874 -16.592198 -1.386717 1.145280 6.421840 -19.381603 -8.555834 -14.674712 1.275784 7.233607 22.067147 0.921475 5.832806 24.956153 0.012400 -0.717700 -1.972300 26.188781 7.332294 -11.751790 -2.314394 -7.096458 22.196210 0.561986 -13.592041 18.790696 -0.096300 -2.001800 5.510600 1.245122 0.397494 -0.999108 2.523974 0.605793 -5.420316 5.446422 -4.285022 8.069990 3.398600 -2.112700 7.482600 -73.991502 -0.673628 26.408436 14.818149 -26.649956 -4.311857 -0.573279 -2.348985 0.149466 -7.125000 0.000000 0.000000 75.788991 -4.634470 20.391644 -17.529450 26.165166 -4.973539 1.204687 -0.563461 4.566479 7.125000 0.000000 0.000000 
1.019498 20.917247 -16.601920 -1.373034 0.996806 6.356371 -19.413390 -8.463814 -14.484211 1.247195 7.148349 21.787577 0.837167 6.432080 24.867975 0.011700 -0.697400 -1.916600 26.184562 7.491936 -11.728779 -2.296701 -7.068483 22.120820 0.562935 -13.351041 18.539825 -0.056500 -1.533200 4.217400 1.256233 0.432192 -0.964157 2.644103 0.623168 -5.334115 5.483300 -4.311619 8.019538 3.417800 -2.124600 7.455200 -73.873617 -0.784565 26.218270 15.397035 -27.457091 -4.594431 -0.296938 -2.546928 2.219885 -7.125000 0.000000 0.000000 75.644780 -4.438408 20.448460 -17.594485 26.265095 -5.014497 1.188483 -0.599235 4.913735 7.125000 0.000000 0.000000 
1.019498 20.722808 -16.611041 -1.342882 0.770118 6.356363 -19.488264 -8.373229 -14.373037 1.233282 7.098181 21.609631 0.797856 6.930872 25.012008 0.015900 -0.812900 -2.234200 26.165661 7.502695 -11.792411 -2.279802 -7.039565 22.043940 0.493823 -12.905090 18.626043 -0.029000 -1.100000 3.024000 1.283096 0.497564 -0.978278 2.790671 0.661333 -5.385596 5.447799 -4.240926 8.114613 3.411800 -2.095000 7.514900 -73.879143 -0.988544 26.068389 15.627270 -27.758287 -4.698830 -0.199846 -2.618945 3.020590 -7.125000 0.000000 0.000000 75.431578 -4.334687 20.068053 -17.870554 26.676986 -5.221848 1.019590 -0.527611 7.624530 7.125000 0.000000 0.000000 
1.018796 20.514339 -16.619760 -1.258321 0.637284 6.359600 -19.623984 -8.350397 -14.291298 1.228653 7.080574 21.560581 0.807120 6.978878 25.125921 0.025800 -1.036500 -2.849300 26.107571 7.449380 -11.892879 -2.266873 -7.013728 21.965875 0.429400 -12.626371 18.847068 -0.009500 -0.630100 1.731700 1.282428 0.506124 -1.011057 2.904200 0.670952 -5.493708 5.528510 -4.102257 8.306510 3.463300 -2.025400 7.618600 -73.775632 -1.195054 26.174103 15.714151 -27.863144 -4.721371 -0.188239 -2.675133 2.893342 -7.125000 0.000000 0.000000 75.265496 -4.433077 20.976636 -17.706279 26.446394 -5.119185 1.073160 -0.528655 4.958068 7.125000 0.000000 0.000000 
1.017493 20.289031 -16.628580 -1.342697 0.677279 6.323387 -19.547524 -8.382557 -14.246787 1.235937 7.094352 21.603500 0.819275 6.961024 25.196556 0.035800 -1.220700 -3.356400 26.269454 7.275869 -11.968252 -2.257328 -6.992498 21.906185 0.371906 -12.420780 19.106843 -0.000200 -0.100200 0.275200 1.297185 0.412308 -1.048680 2.912211 0.626535 -5.602446 5.599904 -4.097504 8.316760 3.501200 -2.022700 7.599500 -73.590801 -1.129507 26.356923 15.847171 -28.058759 -4.796129 -0.231538 -2.678008 2.302698 -7.125000 0.000000 0.000000 75.107732 -4.547318 21.534626 -17.827776 26.626245 -5.216692 1.003065 -0.452741 4.818727 7.125000 0.000000 0.000000 
1.015990 20.050794 -16.636799 -1.546239 0.810941 6.299539 -19.303744 -8.555234 -14.222345 1.248354 7.122857 21.673696 0.780825 7.106293 25.038097 0.040700 -1.302300 -3.581000 26.583853 7.011617 -12.080256 -2.255002 -6.989782 21.904874 0.274561 -12.088681 19.553629 -0.001400 0.241500 -0.663600 1.310249 0.345899 -1.034185 2.838397 0.589407 -5.519860 5.580897 -4.154024 8.251869 3.460500 -2.042900 7.557500 -73.339856 -1.138983 26.574125 15.967213 -28.262927 -4.909551 -0.301112 -2.583139 1.513016 -7.125000 0.000000 0.000000 75.104225 -4.559411 21.382441 -18.231401 27.195422 -5.500689 0.838303 -0.333942 6.984631 7.125000 0.000000 0.000000 
1.011279 19.808448 -16.649427 -1.692643 0.913537 6.348172 -19.107501 -8.760023 -14.195570 1.254214 7.148906 21.764214 0.693673 7.016393 24.346083 0.112300 -2.160300 -5.949000 26.854624 6.779019 -12.323971 -2.265283 -7.019572 21.980751 0.155014 -11.834721 20.210306 -0.001000 0.202000 -0.555100 1.290961 0.364815 -0.964870 2.773487 0.588556 -5.242950 5.778960 -4.204838 8.002231 3.514200 -2.040000 7.458500 -73.051877 -1.436491 26.697702 16.137776 -28.524381 -5.043245 -0.284829 -2.522579 1.363480 -7.125000 0.000000 0.000000 75.227352 -4.389903 21.928950 -17.904082 26.724013 -5.245008 1.065364 -0.504071 3.413767 7.125000 0.000000 0.000000 
1.007070 19.555076 -16.664962 -1.725837 0.877145 6.424423 -19.027375 -8.936763 -14.189480 1.290127 7.209332 21.870971 0.642312 7.818744 24.633635 0.072000 -1.731500 -4.764200 26.989646 6.665081 -12.700891 -2.296330 -7.106555 22.227754 0.000153 -11.364074 20.887687 -0.005200 0.467600 -1.284700 1.251113 0.450258 -0.901050 2.715369 0.623570 -5.027839 5.978728 -4.307515 7.688787 3.566400 -2.061100 7.366200 -72.804199 -1.808052 26.788459 16.280666 -28.740287 -5.160616 -0.282630 -2.455301 1.293127 -7.125000 0.000000 0.000000 75.311025 -4.032823 21.683624 -17.991612 26.824344 -5.281978 1.094832 -0.498163 4.025294 7.125000 0.000000 0.000000 
1.004765 19.281760 -16.676989 -1.733018 0.817719 6.383474 -18.985378 -9.249821 -14.199961 1.369796 7.394454 22.453015 0.420058 7.846686 23.049677 0.243400 -3.175100 -8.766700 27.063892 6.578097 -13.105000 -2.389818 -7.343519 22.972824 -0.052483 -10.750271 20.655578 -0.005400 0.472500 -1.298400 1.256055 0.455395 -0.853834 2.774171 0.623594 -4.904118 6.091217 -4.303407 7.579711 3.612400 -2.047300 7.345900 -72.727269 -2.121463 26.873380 16.490925 -29.019274 -5.277680 -0.233353 -2.483348 0.796606 -7.125000 0.000000 0.000000 75.224595 -3.911333 22.171782 -18.185710 27.046583 -5.355744 1.217189 -0.494327 3.439520 7.125000 0.000000 0.000000 
